<?xml version="1.0" encoding="UTF-8"?>
<svg width="20px" height="20px" viewBox="0 0 20 20" version="1.1" xmlns="http://www.w3.org/2000/svg" xmlns:xlink="http://www.w3.org/1999/xlink">
    <title>编组 36</title>
    <g id="页面-1" stroke="none" stroke-width="1" fill="none" fill-rule="evenodd">
        <g id="创建赛点--赛点列表--抽签" transform="translate(-338.000000, -970.000000)">
            <g id="编组-36" transform="translate(338.000000, 970.000000)">
                <rect id="矩形" opacity="0.4" x="0" y="0" width="20" height="20"></rect>
                <g id="编组" transform="translate(3.000000, 3.000000)" fill="#858EBD" fill-rule="nonzero">
                    <path d="M9.392,0 C9.904,0 10.248,0.112 10.424,0.336 C10.6,0.56 10.688,0.906666667 10.688,1.376 L10.688,4.576 C10.688,4.97066667 10.592,5.29066667 10.4,5.536 C10.208,5.78133333 9.84533333,5.904 9.312,5.904 L4.464,5.904 C3.952,5.904 3.59466667,5.78666667 3.392,5.552 C3.18933333,5.31733333 3.088,4.944 3.088,4.432 L3.088,1.376 C3.088,0.928 3.184,0.586666667 3.376,0.352 C3.568,0.117333333 3.92533333,0 4.448,0 L9.392,0 Z M10,6.768 C10.256,6.768 10.4346667,6.832 10.536,6.96 C10.6373333,7.088 10.688,7.25866667 10.688,7.472 L10.688,8.768 C10.688,8.992 10.6293333,9.176 10.512,9.32 C10.3946667,9.464 10.1866667,9.536 9.888,9.536 L3.888,9.536 C3.64266667,9.536 3.448,9.488 3.304,9.392 C3.16,9.296 3.088,9.09333333 3.088,8.784 L3.088,7.456 C3.088,6.99733333 3.344,6.768 3.856,6.768 L10,6.768 L10,6.768 Z M11.408,10.384 L11.408,5.184 C11.408,4.896 11.4906667,4.688 11.656,4.56 C11.8213333,4.432 12.0266667,4.368 12.272,4.368 L13.008,4.368 C13.3173333,4.368 13.5226667,4.464 13.624,4.656 C13.7253333,4.848 13.776,5.04533333 13.776,5.248 L13.776,5.84 L13.776,7.056 L13.776,8.624 L13.776,10.208 L13.776,11.488 L13.776,12.16 C13.776,12.8 13.4666667,13.12 12.848,13.12 L12.288,13.12 L12.288,14.528 L11.264,14.528 L11.264,13.12 L2.528,13.12 L2.528,14.528 L1.52,14.528 L1.52,13.12 L0.88,13.12 C0.314666667,13.12 0.0213333333,12.7893333 0,12.128 L0,5.168 C0,4.90133333 0.08,4.70133333 0.24,4.568 C0.4,4.43466667 0.602666667,4.368 0.848,4.368 L1.472,4.368 C1.78133333,4.368 2.008,4.45066667 2.152,4.616 C2.296,4.78133333 2.37333333,4.99733333 2.384,5.264 L2.384,5.616 C2.384,5.78666667 2.38133333,5.99733333 2.376,6.248 C2.37066667,6.49866667 2.368,6.77333333 2.368,7.072 L2.368,7.984 L2.368,10.384 L11.408,10.384 L11.408,10.384 Z" id="形状"></path>
                </g>
            </g>
        </g>
    </g>
</svg>