<?xml version="1.0" encoding="UTF-8"?>
<svg width="18px" height="18px" viewBox="0 0 18 18" version="1.1" xmlns="http://www.w3.org/2000/svg" xmlns:xlink="http://www.w3.org/1999/xlink">
    <title>编组</title>
    <g id="页面-1" stroke="none" stroke-width="1" fill="none" fill-rule="evenodd">
        <g id="创建赛事" transform="translate(-621.000000, -793.000000)" fill="#FFFFFF" fill-rule="nonzero">
            <g id="编组-26" transform="translate(462.000000, 756.000000)">
                <g id="编组-38" transform="translate(142.000000, 37.000000)">
                    <g id="编组" transform="translate(17.000000, 0.000000)">
                        <path d="M1.23107143,2.40107143 L16.7689286,2.40107143 C17.5896429,2.40107143 18,2.81142857 18,3.63214285 L18,4.70571428 C18,5.52642857 17.5896429,5.93678572 16.7689286,5.93678572 L1.23107143,5.93678572 C0.410357145,5.93678572 0,5.52642857 0,4.70571428 L0,3.63214285 C0,2.81142856 0.410357145,2.40107143 1.23107143,2.40107143 Z" id="路径"></path>
                        <path d="M12.0535714,2.57142857 L10.7678572,2.57142857 L10.7678572,1.28571428 L7.23214285,1.28571428 L7.23214285,2.57142857 L5.94642857,2.57142857 L5.94642857,1.28571428 C5.94642857,0.575633892 6.52206246,0 7.23214285,0 L10.7678572,0 C11.4779375,0 12.0535714,0.575633892 12.0535714,1.28571428 L12.0535714,2.57142857 Z M2.89285715,4.82142857 L2.89285715,16.7142857 C2.89285715,17.4243661 3.46849104,18 4.17857143,18 L13.8214286,18 C14.531509,18 15.1071428,17.4243661 15.1071428,16.7142857 L15.1071428,4.82142857 L2.89285715,4.82142857 Z M6.99107143,13.9821428 C6.99101273,14.3371415 6.70321298,14.6248937 6.34821429,14.6248937 C5.9932156,14.6248937 5.70541585,14.3371415 5.70535715,13.9821428 L5.70535715,8.19642857 C5.70541585,7.84142988 5.9932156,7.55367772 6.34821429,7.55367772 C6.70321298,7.55367772 6.99101273,7.84142988 6.99107143,8.19642857 L6.99107143,13.9821428 Z M9.72321428,13.9821428 C9.72315558,14.3371415 9.43535583,14.6248937 9.08035714,14.6248937 C8.72535845,14.6248937 8.4375587,14.3371415 8.4375,13.9821428 L8.4375,8.19642857 C8.4375587,7.84142988 8.72535845,7.55367772 9.08035714,7.55367772 C9.43535583,7.55367772 9.72315558,7.84142988 9.72321428,8.19642857 L9.72321428,13.9821428 Z M12.2946428,13.9821428 C12.2945841,14.3371415 12.0067844,14.6248937 11.6517857,14.6248937 C11.296787,14.6248937 11.0089873,14.3371415 11.0089286,13.9821428 L11.0089286,8.19642857 C11.0089873,7.84142988 11.296787,7.55367772 11.6517857,7.55367772 C12.0067844,7.55367772 12.2945841,7.84142988 12.2946428,8.19642857 L12.2946428,13.9821428 Z" id="形状"></path>
                    </g>
                </g>
            </g>
        </g>
    </g>
</svg>