<?xml version="1.0" encoding="UTF-8"?>
<svg width="22px" height="22px" viewBox="0 0 22 22" version="1.1" xmlns="http://www.w3.org/2000/svg" xmlns:xlink="http://www.w3.org/1999/xlink">
    <title>编组 51</title>
    <g id="页面-1" stroke="none" stroke-width="1" fill="none" fill-rule="evenodd">
        <g id="创建赛点" transform="translate(-1226.000000, -93.000000)">
            <g id="编组-54" transform="translate(1196.000000, 70.000000)">
                <g id="编组-50" transform="translate(30.000000, 23.000000)">
                    <rect id="矩形" x="0" y="0" width="22" height="22"></rect>
                    <g id="编组" fill="#858EBD" fill-rule="nonzero">
                        <path d="M18.1957921,9.66289141 L21.9630047,9.66289141 L21.9630047,12.3252049 L18.1966574,12.3252049 L18.1966574,15.6528804 L13.7294736,13.099586 L13.7294736,8.86255343 L18.1966574,6.33521588 L18.1966574,9.66289141 L18.1957921,9.66289141 Z M13.7294736,15.0134753 L16.6660651,16.7344183 L16.6271297,19.9677837 L13.7294736,19.9677837 L13.7294736,15.0134753 Z M13.723417,0.60306546 L12.254256,0.35907054 L10.1119459,0 L16.8719898,0 L16.808828,5.17580733 L13.7294736,6.92357244 L13.723417,0.60306546 L13.723417,0.60306546 Z M11.9488297,21.9647351 L0.242264456,19.9677837 L0,5.32907052e-15 L11.9488297,1.99695139 L11.9488297,21.9647351 L11.9488297,21.9647351 Z" id="形状"></path>
                    </g>
                </g>
            </g>
        </g>
    </g>
</svg>