<?xml version="1.0" encoding="UTF-8"?>
<svg width="20px" height="20px" viewBox="0 0 20 20" version="1.1" xmlns="http://www.w3.org/2000/svg" xmlns:xlink="http://www.w3.org/1999/xlink">
    <title>编组 5</title>
    <g id="页面-1" stroke="none" stroke-width="1" fill="none" fill-rule="evenodd">
        <g id="导航图标切图" transform="translate(-43.000000, -300.000000)">
            <g id="编组-5" transform="translate(43.000000, 300.000000)">
                <g id="编组" transform="translate(2.000000, 2.000000)" fill="#B3C0E7" fill-rule="nonzero">
                    <path d="M2.13472667,11.689426 C0.87766231,11.689426 0.000592895583,10.0335952 0.000592895583,8.70851964 L0.000592895583,2.40773414 C-0.0281634787,1.11347432 0.992687807,0.0390332326 2.28672465,0 L13.7132754,0 C15.0073122,0.0390332326 16.0281635,1.11347432 15.9994071,2.40773414 L15.9994071,8.70851964 C15.9994071,10.0335952 15.1243917,11.689426 13.8673274,11.689426 L2.13472667,11.689426 Z M8.28859076,8.13329305 C8.43853471,8.13329305 8.58231658,8.07166163 8.68912597,7.96483384 L12.6985861,3.96495468 C12.9101509,3.75335347 12.9224751,3.41643505 12.7314506,3.19045317 L12.6985861,3.1555287 C12.4746972,2.93160121 12.1131885,2.93160121 11.8892996,3.1555287 L8.28859076,6.75685801 L6.40094019,4.86888218 C6.17705128,4.64495468 5.81554257,4.64495468 5.59165366,4.86888218 L3.30141385,7.15540785 C3.0898491,7.36700906 3.07752494,7.70392749 3.26854942,7.92990937 L3.30141385,7.96277946 C3.40822324,8.06960725 3.55405914,8.13123867 3.70605712,8.13123867 C3.8580551,8.13123867 4.00389099,8.07166163 4.11070038,7.96277946 L6.00040498,6.07891239 L7.88805554,7.96277946 C7.99486493,8.07166163 8.1386468,8.13123867 8.28859076,8.13329305 Z M15.142878,12.5871903 C15.6214662,12.5954079 16.0055692,12.9898489 15.9994802,13.4685196 C15.9398403,14.1012689 15.526981,14.6477341 14.9333672,14.8757704 L12.8012875,14.8757704 L13.2572814,15.5865861 C13.534575,15.9666465 13.4709002,16.4987311 13.1114455,16.8027795 L13.0847432,16.8233233 C12.9368532,16.9383686 12.7560989,17 12.5712365,17 C12.300105,17 12.0433516,16.8685196 11.8851916,16.6466465 L10.6650997,14.8757704 L5.33490032,14.8757704 L4.11686246,16.6466465 C3.98335073,16.8335952 3.78000208,16.956858 3.55405914,16.9897281 C3.3281162,17.0225982 3.09806521,16.9630211 2.91731085,16.8212689 C2.54758604,16.5295468 2.46542497,16.001571 2.72834039,15.6112387 L2.74682664,15.5845317 L3.20282057,14.873716 L1.0686868,14.873716 C0.47507307,14.6456798 0.0622136975,14.0992145 0.00257380411,13.4664653 C-0.00351515788,12.9857402 0.380587841,12.5933535 0.859176069,12.585136 L15.142878,12.585136 L15.142878,12.5871903 Z" id="形状"></path>
                </g>
                <rect id="矩形" x="0" y="0" width="20" height="20"></rect>
            </g>
        </g>
    </g>
</svg>