<?xml version="1.0" encoding="UTF-8"?>
<svg width="20px" height="20px" viewBox="0 0 20 20" version="1.1" xmlns="http://www.w3.org/2000/svg" xmlns:xlink="http://www.w3.org/1999/xlink">
    <title>编组 6</title>
    <g id="页面-1" stroke="none" stroke-width="1" fill="none" fill-rule="evenodd">
        <g id="导航图标切图" transform="translate(-86.000000, -246.000000)">
            <g id="编组-6" transform="translate(86.000000, 246.000000)">
                <g id="编组" transform="translate(1.000000, 2.000000)" fill="#FFFFFF" fill-rule="nonzero">
                    <path d="M14.4012097,0 C14.5745968,0 14.7479839,0.00787111056 14.921371,0.0236133317 C15.4657258,0.0728077727 15.8830645,0.519493297 15.8810557,1.05276104 L15.8810557,12.6567458 C15.8810557,13.2136269 15.4294355,13.6681835 14.8608871,13.6878613 C13.8346774,13.725249 12.9637097,13.8590579 12.2520161,14.0912557 C11.3185484,14.3962612 10.4092742,14.9492067 9.53024194,15.7481245 L9.53024194,2.7725987 C10.1794355,1.68244988 11.0887097,0.90124216 12.2520161,0.427007748 C12.9334677,0.147583323 13.6633065,0.00196777764 14.4012097,0 Z M16.9415323,12.9007502 L16.9415323,2.31213873 C17.2217742,2.31213873 17.4919355,2.4203665 17.6895161,2.61517649 C17.8870968,2.80998647 18,3.0717009 18,3.34522199 L18,13.8511868 C18,14.6717501 17.4737903,16 15.8830645,15.8661911 C14.7620968,15.7737056 14.6895161,15.73435 13.7439516,15.7500922 C12.8185484,15.7658345 11.5221774,15.73435 10.3629032,16 C11.0120968,15.4706678 11.9616935,15.0967901 12.5907258,14.9669167 C13.2177419,14.8350756 14.0020161,14.7780101 14.9233871,14.7445579 C16.0927419,14.7032345 16.9415323,13.8452835 16.9415323,12.9007502 L16.9415323,12.9007502 Z M3.60080645,0 C4.33266129,0 5.0483871,0.143647768 5.75,0.427007748 C6.91330645,0.899274382 7.82258065,1.68244988 8.47177419,2.7725987 L8.47177419,15.7500922 C7.59274194,14.9492067 6.68346774,14.3962612 5.75,14.0932235 C5.03830645,13.8629935 4.16935484,13.7272168 3.14112903,13.6917968 C2.57258065,13.6721191 2.12096774,13.2155946 2.12297715,12.6587136 L2.12297715,1.05276104 C2.12297715,0.519493297 2.53830645,0.0747755504 3.08266129,0.0255811093 C3.25403226,0.00787111056 3.42741935,0 3.60080645,0 Z M1.06048387,12.9007502 C1.06048387,13.7527979 1.70564516,14.6953634 3.10080645,14.7445579 C4.02419355,14.7780101 4.60080645,14.876399 5.41330645,14.9669167 C6.22580645,15.0554667 7.00806452,15.4726356 7.65725806,16 C6.49798387,15.73435 5.2983871,15.7500922 4.25806452,15.7500922 C3.43951613,15.7500922 3.29637097,15.8661911 2.11895161,15.8661911 C0.72983871,15.8661911 0,14.6402656 0,13.8511868 L0,3.34325421 C0,2.7725987 0.473790323,2.31017095 1.05846774,2.31017095 L1.05846774,12.9007502 L1.06048387,12.9007502 Z" id="形状"></path>
                </g>
                <rect id="矩形" x="0" y="0" width="20" height="20"></rect>
            </g>
        </g>
    </g>
</svg>