<?xml version="1.0" encoding="UTF-8"?>
<svg width="20px" height="20px" viewBox="0 0 20 20" version="1.1" xmlns="http://www.w3.org/2000/svg" xmlns:xlink="http://www.w3.org/1999/xlink">
    <title>编组 2</title>
    <g id="页面-1" stroke="none" stroke-width="1" fill="none" fill-rule="evenodd">
        <g id="导航图标切图" transform="translate(-43.000000, -139.000000)">
            <g id="编组-2" transform="translate(43.000000, 139.000000)">
                <rect id="矩形" x="0" y="0" width="20" height="20"></rect>
                <g id="编组" transform="translate(0.833333, 0.833333)" fill="#B3C0E7" fill-rule="nonzero">
                    <path d="M13.8989899,0 C14.4646465,0 14.9494949,0.48484849 15.030303,1.05050505 L15.030303,2.50505052 C16.5656566,2.90909094 17.7777778,4.28282831 17.7777778,5.97979799 C17.7777778,7.83838385 16.3232323,9.3737374 14.5454545,9.53535354 C13.6565657,11.5555556 11.8787879,13.010101 9.69696969,13.2525253 L9.69696969,16.1616162 L11.8787879,16.1616162 C12.2828283,16.1616162 12.6868687,16.4848485 12.6868687,16.969697 C12.6868687,17.3737374 12.3636364,17.7777778 11.8787879,17.7777778 L5.97979797,17.7777778 C5.57575755,17.7777778 5.17171716,17.4545455 5.17171716,16.969697 C5.17171716,16.5656566 5.49494948,16.1616162 5.97979797,16.1616162 L8.16161615,16.1616162 L8.16161615,13.1717172 C6.14141411,12.8484849 4.44444443,11.5555556 3.55555555,9.69696971 L3.47474747,9.53535354 C1.53535354,9.53535354 0,7.91919193 0,5.97979799 C0,4.28282831 1.21212122,2.82828284 2.82828281,2.42424242 L2.98989898,2.42424242 L2.98989898,1.13131315 C2.98989898,0.484848516 3.47474747,0 4.04040404,0 L13.8989899,0 Z M9.37373737,3.31313133 C9.13131312,2.82828284 8.72727273,2.74747477 8.56565656,3.23232323 L8.56565656,3.31313133 L7.83838383,4.76767677 L6.30303029,5.01010102 C5.8181818,5.09090909 5.65656565,5.49494951 5.97979797,5.81818182 L6.06060604,5.8989899 L7.19191919,7.11111112 L6.94949495,8.80808081 C6.86868687,9.37373737 7.11111112,9.61616161 7.59595958,9.37373737 L7.67676766,9.37373737 L9.05050505,8.56565656 L10.4242424,9.37373737 C10.9090909,9.61616161 11.1515152,9.45454544 11.1515151,8.88888891 L11.1515151,8.80808081 L10.9090909,7.11111112 L12.040404,5.8989899 C12.4444445,5.49494948 12.2828283,5.17171716 11.7979798,5.01010102 L11.7171717,5.01010102 L10.020202,4.84848487 L9.37373737,3.31313133 L9.37373737,3.31313133 Z M2.90909091,4.04040404 C2.1010101,4.28282828 1.53535352,5.01010102 1.53535352,5.97979799 C1.53535352,6.86868688 2.10101008,7.67676768 2.98989898,7.91919193 C2.98989898,7.75757576 2.98989898,7.59595961 2.90909091,7.43434344 L2.90909091,4.04040404 L2.90909091,4.04040404 Z M15.030303,4.20202021 L15.030303,7.91919193 C15.7575758,7.59595961 16.2424242,6.86868688 16.2424242,6.06060607 C16.2424242,5.25252526 15.8383838,4.60606063 15.1919192,4.28282828 L15.030303,4.20202021 Z" id="形状"></path>
                </g>
            </g>
        </g>
    </g>
</svg>