<?xml version="1.0" encoding="UTF-8"?>
<svg width="20px" height="20px" viewBox="0 0 20 20" version="1.1" xmlns="http://www.w3.org/2000/svg" xmlns:xlink="http://www.w3.org/1999/xlink">
    <title>编组 4</title>
    <g id="页面-1" stroke="none" stroke-width="1" fill="none" fill-rule="evenodd">
        <g id="导航图标切图" transform="translate(-43.000000, -354.000000)">
            <g id="编组-4" transform="translate(43.000000, 354.000000)">
                <g id="编组" transform="translate(2.000000, 1.000000)" fill="#B3C0E7" fill-rule="nonzero">
                    <path d="M7.58174584,6.40190522 L8.323728,8.12793923 L15.2823728,8.12793923 L15.2823728,1.5743398 C15.2823728,0.705173038 14.550639,0 13.6508319,0 L4.26742223,0 C3.36761514,0 2.63588136,0.703123116 2.63588136,1.5743398 L2.63588136,5.73568069 L6.54666024,5.73568069 C6.99143959,5.72953093 7.39932481,5.9919209 7.58174584,6.40190522 Z M5.56076682,2.96008682 C5.56076682,2.67924756 5.79033036,2.44965634 6.07113576,2.44965634 L11.8512177,2.44965634 C12.1320231,2.44965634 12.3615867,2.67924756 12.3615867,2.96008682 C12.3615867,3.24092608 12.1320231,3.4705173 11.8512177,3.4705173 L6.07113576,3.4705173 C5.78623101,3.4705173 5.56076682,3.24092608 5.56076682,2.96008682 Z" id="形状"></path>
                    <path d="M15.8111888,8.91100928 L7.96503497,8.91100928 L7.22305281,7.12142771 C7.04883048,6.70119378 6.64299494,6.4285542 6.18591753,6.4285542 L1.12117193,6.4285542 C0.502170244,6.4285542 0,6.930785 0,7.54986133 L0,9.89497166 C0,9.92777041 0.00204967446,9.96261908 0.00614902339,9.99541782 C0.00409934893,10.0282166 0,10.0630652 0,10.095864 L0,15.8089955 C0,16.1246835 0.125030142,16.4280719 0.348444659,16.6515133 C0.571859175,16.8749548 0.875210996,17 1.19086086,17 L15.8091391,17 C16.124789,17 16.4281408,16.8749548 16.6515553,16.6515133 C16.8749699,16.4280719 17,16.1246835 17,15.8089955 L17,10.0999638 C17,9.7842759 16.8749699,9.4808875 16.6515553,9.25744604 C16.4260912,9.0360545 16.124789,8.91100928 15.8111888,8.91100928 Z M2.75476248,13.2281442 C2.191102,13.2281442 1.68278273,12.8878572 1.46756692,12.3671771 C1.2523511,11.846497 1.37123222,11.24587 1.77091874,10.8481852 C2.16855558,10.4505004 2.7691102,10.329555 3.28972751,10.5447968 C3.81034483,10.7600386 4.15059079,11.2704691 4.15059079,11.8321476 C4.14854111,12.6029181 3.5233904,13.2281442 2.75476248,13.2281442 L2.75476248,13.2281442 Z" id="形状"></path>
                </g>
                <rect id="矩形" x="0" y="0" width="20" height="20"></rect>
            </g>
        </g>
    </g>
</svg>