<?xml version="1.0" encoding="UTF-8"?>
<svg width="20px" height="20px" viewBox="0 0 20 20" version="1.1" xmlns="http://www.w3.org/2000/svg" xmlns:xlink="http://www.w3.org/1999/xlink">
    <title>编组 3</title>
    <g id="页面-1" stroke="none" stroke-width="1" fill="none" fill-rule="evenodd">
        <g id="导航图标切图" transform="translate(-86.000000, -193.000000)">
            <g id="编组-3" transform="translate(86.000000, 193.000000)">
                <g id="编组" transform="translate(0.000000, 1.000000)" fill="#FFFFFF" fill-rule="nonzero">
                    <path d="M19.5606914,8.79823659 C19.8395473,9.07720813 19.9856146,9.38407683 19.9988934,9.71884269 C20.0121723,10.0536085 19.9059415,10.3325801 19.6802011,10.5557573 C19.427903,10.7928831 19.1357683,10.9044717 18.8037971,10.8905232 C18.4718259,10.8765746 18.206249,10.7789346 18.0070662,10.5976031 C17.940672,10.5418087 17.7381696,10.3465287 17.399559,10.0117628 C17.0609483,9.67699695 16.6559435,9.27597536 16.1845444,8.80869802 C15.7131453,8.34142068 15.208549,7.8392719 14.6707557,7.30225168 C14.1329624,6.76523146 13.6250464,6.25959553 13.1470079,5.78534391 C12.6689694,5.31109228 12.2573251,4.89960925 11.9120751,4.55089482 C11.566825,4.20218039 11.347724,3.98597744 11.2547721,3.90228598 C10.829849,3.49777724 10.4115652,3.30249716 9.99992096,3.31644574 C9.58827667,3.33039431 9.18327181,3.52567439 8.78490638,3.90228598 C8.6521179,4.02782317 8.4031395,4.26843613 8.03797118,4.62412485 C7.67280286,4.97981357 7.25119944,5.39478374 6.77316092,5.86903537 C6.29512239,6.343287 5.79052617,6.83846149 5.25937226,7.35455884 C4.72821834,7.8706562 4.23690097,8.35188212 3.78542014,8.79823659 C3.33393931,9.24459106 2.94553301,9.62468979 2.62020124,9.93853278 C2.29486946,10.2523758 2.09900646,10.4371944 2.03261222,10.4929887 C1.8334295,10.6603716 1.56785254,10.7510374 1.23588134,10.764986 C0.903910146,10.7789346 0.618414917,10.6743202 0.379395654,10.451143 C0.113818696,10.2000686 -0.0123303588,9.89668704 0.000948489136,9.54099833 C0.014227337,9.18530961 0.127097544,8.90285092 0.339559111,8.69362226 C0.419232198,8.6099308 0.664890884,8.36583069 1.07653517,7.96132195 C1.48817945,7.55681321 1.97949683,7.0755873 2.55048729,6.51764421 C3.12147775,5.95970112 3.73562446,5.3599123 4.39292743,4.71827775 C5.0502304,4.07664319 5.66105741,3.47685437 6.22540844,2.91891128 C6.78975948,2.3609682 7.27443743,1.88322943 7.67944229,1.48569497 C8.08444715,1.08816052 8.3201467,0.854521854 8.38654094,0.784778968 C8.89113716,0.268681611 9.43556992,0.00714578752 10.0198392,0.0001714989 C10.6041085,-0.00680278972 11.1020653,0.198938724 11.5137096,0.617396041 C11.5933827,0.687138928 11.7593683,0.85103471 12.0116664,1.10908339 C12.2639645,1.36713207 12.5726977,1.68097506 12.9378661,2.05061235 C13.3030344,2.42024965 13.7113589,2.83521982 14.1628398,3.29552287 C14.6143206,3.75582592 15.0724409,4.21961611 15.5372005,4.68689345 C16.0019602,5.15417079 16.4567608,5.61796098 16.9016022,6.07826403 C17.3464436,6.53856708 17.7547681,6.95353725 18.1265759,7.32317455 C18.4983836,7.69281184 18.8104365,8.01014197 19.0627347,8.27516494 L19.5606914,8.79823659 Z M8.78490638,5.76442104 C9.11687757,5.44360376 9.51524301,5.27273369 9.98000269,5.25181083 C10.4447624,5.23088796 10.8630461,5.40175803 11.2348538,5.76442104 C11.2746904,5.80626677 11.3942,5.92482968 11.5933827,6.12010976 L12.350277,6.85241006 C12.6424117,7.14533019 12.9710632,7.47312175 13.3362315,7.83578476 C13.7013998,8.19844777 14.0765273,8.56111077 14.4616139,8.92377378 C15.3512967,9.78858557 16.3472103,10.7580117 17.4493546,11.8320521 L17.4493546,15.8073966 C17.4493546,16.1142653 17.3398041,16.3862626 17.1207031,16.6233884 C16.9016022,16.8605142 16.6061478,16.9860514 16.23434,17 L12.4697867,17 L12.4697867,13.7569558 C12.4697867,13.2966527 12.2639645,13.0665012 11.8523202,13.0665012 L8.04793032,13.0665012 C7.8221899,13.0665012 7.66616344,13.1362441 7.57985093,13.2757299 C7.49353842,13.4152157 7.45038216,13.5756243 7.45038216,13.7569558 C7.45038216,13.8406473 7.44706245,14.0533631 7.44042303,14.3951032 C7.4337836,14.7368433 7.43046389,15.1029935 7.43046389,15.4935537 L7.43046389,17 L3.78542014,17 C3.40033355,17 3.09492005,16.9093342 2.86917964,16.7280027 C2.64343922,16.5466712 2.53056901,16.2886226 2.53056901,15.9538567 L2.53056901,11.7902064 C3.61943454,10.7440631 4.60870871,9.79555986 5.49839152,8.94469665 C5.87019926,8.58203364 6.242007,8.22285778 6.61381474,7.86716906 C6.98562249,7.51148034 7.32423311,7.18717592 7.62964661,6.8942558 C7.93506011,6.60133567 8.19067793,6.35374843 8.39650008,6.15149406 C8.60232222,5.94923969 8.73179098,5.82021535 8.78490638,5.76442104 L8.78490638,5.76442104 Z" id="形状"></path>
                </g>
                <rect id="矩形" x="0" y="0" width="20" height="20"></rect>
            </g>
        </g>
    </g>
</svg>