<?xml version="1.0" encoding="UTF-8"?>
<svg width="20px" height="20px" viewBox="0 0 20 20" version="1.1" xmlns="http://www.w3.org/2000/svg" xmlns:xlink="http://www.w3.org/1999/xlink">
    <title>编组 33</title>
    <g id="页面-1" stroke="none" stroke-width="1" fill="none" fill-rule="evenodd">
        <g id="侧边banner新增" transform="translate(-82.000000, -176.000000)">
            <g id="编组-33" transform="translate(82.000000, 176.000000)">
                <rect id="矩形" x="0" y="0" width="20" height="20"></rect>
                <g id="编组" transform="translate(1.000000, 4.000000)" fill="#FFFFFF" fill-rule="nonzero">
                    <path d="M15.1866105,0.325796703 C15.4283363,0.146618078 15.3785589,0 15.0759942,0 L1.93268046,0 C1.63011573,0 1.58026076,0.14671361 1.82187009,0.32602599 L8.0609406,4.95629451 C8.30254991,5.13560689 8.69799353,5.13572154 8.93971928,4.95654292 L15.1866105,0.325796703 Z" id="路径"></path>
                    <path d="M11.6810243,4.35950377 C11.4392986,4.5386824 11.4259276,4.84793131 11.6513132,5.04669595 L15.6575061,8.57993725 C15.8828723,8.7786828 15.858071,8.81103316 15.6023532,8.65178449 L10.7895927,5.65449309 C10.533875,5.49524443 10.1269234,5.51158204 9.88517822,5.69074156 L8.93929232,6.39192102 C8.69756657,6.57109965 8.30212296,6.57098499 8.06051364,6.39167261 L7.1054097,5.68283071 C6.86380039,5.50351833 6.45696524,5.48721893 6.20134451,5.64658225 L1.38175298,8.65155519 C1.12613227,8.81095671 1.1018937,8.77929425 1.32791971,8.5812175 L5.35695393,5.05034563 C5.58296052,4.85228799 5.57019113,4.54353591 5.3285818,4.36422351 L0.439302002,0.735650847 C0.197692692,0.556338466 0,0.65337047 0,0.951288125 L0,11.4583367 C0,11.7562353 0.247547665,12 0.550112389,12 L16.4498876,12 C16.7524523,12 17,11.7562353 17,11.4583367 L17,0.958224439 C17,0.660306766 16.8022491,0.563160109 16.5605233,0.742338753 L11.6810243,4.35950377 Z" id="路径"></path>
                </g>
            </g>
        </g>
    </g>
</svg>