<?xml version="1.0" encoding="UTF-8"?>
<svg width="20px" height="20px" viewBox="0 0 20 20" version="1.1" xmlns="http://www.w3.org/2000/svg" xmlns:xlink="http://www.w3.org/1999/xlink">
    <title>编组 32</title>
    <g id="页面-1" stroke="none" stroke-width="1" fill="none" fill-rule="evenodd">
        <g id="侧边banner新增" transform="translate(-82.000000, -133.000000)">
            <g id="编组-32" transform="translate(82.000000, 133.000000)">
                <rect id="矩形" x="0" y="0" width="20" height="20"></rect>
                <g id="编组" transform="translate(3.000000, 1.000000)" fill="#FFFFFF" fill-rule="nonzero">
                    <path d="M7.52112732,0 C10.3722613,1.35789013 12.6561207,2.11197309 14.3726857,2.26230942 C14.7275531,2.29334529 15,2.59460314 15,2.95587444 L15,9.68698655 C14.3965584,13.7409417 11.8965517,16.5119327 7.5,18 C3.04667109,16.506343 0.546664456,13.735352 0,9.68700673 L0,2.96959641 C0,2.60313901 0.280046419,2.29943946 0.640484085,2.27496188 C2.4172679,2.15428924 4.71081565,1.39598879 7.52112732,0 L7.52112732,0 Z M7.54573607,3.61856502 C5.92796419,3.61856502 4.61890584,4.95966592 4.61890584,6.61104484 C4.61890584,8.04721076 5.60896552,9.24869058 6.93109416,9.53747758 L6.95122679,13.7812399 L6.95146552,13.7954865 C6.96045756,14.1219484 7.22494695,14.383009 7.5485809,14.3814421 C7.87692971,14.3798206 8.14181698,14.1085291 8.14022546,13.7754484 L8.13660477,13.0134955 L9.19360743,13.0107309 L9.20763263,13.0105291 C9.52947613,13.0021345 9.78742042,12.7344148 9.78658488,12.4060964 C9.78572944,12.0730157 9.51887268,11.8037018 9.19054377,11.8045493 L8.13089523,11.8073139 L8.12824934,11.2484664 L9.19360743,11.2457018 L9.20763263,11.2455 C9.52947613,11.2370852 9.78742042,10.9693655 9.78658488,10.6410471 C9.78572944,10.3079664 9.51887268,10.0386525 9.19054377,10.0395 L8.12253979,10.0422848 L8.1202122,9.54595291 C9.46241379,9.27292601 10.4725663,8.06169955 10.4725663,6.61106502 C10.4725663,4.95966592 9.16348806,3.61856502 7.54573607,3.61856502 L7.54573607,3.61856502 Z M7.54573607,4.82474664 C8.50418435,4.82474664 9.28352785,5.62318386 9.28352785,6.61104484 C9.28352785,7.53534081 8.60128647,8.29380269 7.72842175,8.38759641 C7.6617136,8.36263155 7.59111548,8.35006746 7.52001326,8.35050673 C7.45297082,8.35084978 7.38855438,8.36241256 7.32853448,8.38345964 C6.47226127,8.27370404 5.8079244,7.52313229 5.8079244,6.61104484 C5.8079244,5.62318386 6.5872878,4.82474664 7.54573607,4.82474664 L7.54573607,4.82474664 Z" id="形状"></path>
                </g>
            </g>
        </g>
    </g>
</svg>