<?xml version="1.0" encoding="UTF-8"?>
<svg width="20px" height="20px" viewBox="0 0 20 20" version="1.1" xmlns="http://www.w3.org/2000/svg" xmlns:xlink="http://www.w3.org/1999/xlink">
    <title>编组 26</title>
    <g id="页面-1" stroke="none" stroke-width="1" fill="none" fill-rule="evenodd">
        <g id="侧边banner新增" transform="translate(-82.000000, -90.000000)">
            <g id="编组-26" transform="translate(82.000000, 90.000000)">
                <rect id="矩形" x="0" y="0" width="20" height="20"></rect>
                <g id="编组" transform="translate(1.000000, 1.000000)" fill="#FFFFFF" fill-rule="nonzero">
                    <path d="M17.2677382,18 L11.1945281,18 C10.4644391,18 10.3514492,17.8870622 10.3514492,17.1507949 L10.3514492,13.8126152 C10.3514492,13.019879 10.4079441,12.9069412 11.3096909,12.9069412 C11.5356708,12.9069412 11.6464879,12.8504723 11.6464879,12.565956 L11.6464879,11.2649999 C11.7594778,9.85110594 12.5460618,8.94543194 13.7281105,8.83249418 C15.2447834,8.71955641 16.2573472,9.397183 16.5941442,10.8697177 C16.7071342,11.3779376 16.7071342,11.8861576 16.6506392,12.3965494 C16.5941442,12.8504723 16.7636291,12.9634101 17.1569211,12.9069412 C17.8305151,12.9069412 18,13.0763479 18,13.6996774 L18,17.2659045 C17.9978271,17.8870622 17.88701,18 17.2677382,18 L17.2677382,18 Z M15.4120954,10.3614978 C14.7949964,9.51229264 13.3891407,9.68169929 12.9371808,10.6438422 C12.5438889,11.3236406 12.6568788,12.059908 12.6568788,12.8504723 C13.1631607,13.019879 13.7259376,12.8504723 14.1170567,12.9069412 L14.6233386,12.9069412 C15.8032145,12.9069412 15.8032145,12.9069412 15.8032145,11.7189228 C15.8032145,11.208531 15.6923974,10.7567799 15.4120954,10.3614978 Z M12.1527698,7.3034906 C10.2406321,7.92682018 9.3410582,9.34071412 9.11507829,11.3214688 C8.94776624,13.2457545 9.0607562,15.1135714 9.00426122,17.0356852 C8.94776624,17.7154837 8.72395921,18 8.04819236,18 L1.75117522,18 C1.02108627,18 0.29099733,17.5460771 0.119339512,17.0356852 C-0.160962493,16.3580587 0.0628445345,15.5653224 0.682116407,15.0571025 C1.41220535,14.4337729 2.25528425,14.0384907 3.15485813,13.6975056 C3.94361494,13.4151611 4.73019886,13.1328167 5.4602878,12.7918316 C6.24687172,12.4530183 6.41635666,11.7189228 6.02089181,10.9240147 C5.90138321,10.6807641 5.72972539,10.4679199 5.5146099,10.3006851 C4.89751091,9.79029329 4.55854104,9.16913559 4.33473401,8.43286824 C4.23478136,7.99414847 3.97403531,7.60972569 3.60247218,7.3577876 C2.92887822,6.90386467 2.81588826,6.22623808 2.87238324,5.48997073 C2.87238324,5.20762632 2.98320031,4.98175079 3.26350232,4.92528191 C3.71546214,4.81234415 3.71546214,4.47135897 3.76978423,4.18901456 C3.82627921,3.96313904 3.82627921,3.79373239 3.88060131,3.56568498 C4.21739829,1.58493035 5.90572897,0.0580986501 7.93085664,0.001629768 C10.1232964,-0.0548391141 11.9224441,1.3612267 12.3157361,3.45274722 L12.4830481,4.47135897 C12.4265531,4.58429674 12.4830481,4.75370339 12.709028,4.81017227 C13.10232,4.92311003 13.21531,5.2640952 13.2718049,5.6029085 C13.3304728,6.39998849 12.9393537,7.07761507 12.1527698,7.3034906 L12.1527698,7.3034906 Z" id="形状"></path>
                </g>
            </g>
        </g>
    </g>
</svg>