<?xml version="1.0" encoding="UTF-8"?>
<svg width="20px" height="20px" viewBox="0 0 20 20" version="1.1" xmlns="http://www.w3.org/2000/svg" xmlns:xlink="http://www.w3.org/1999/xlink">
    <title>编组 42</title>
    <g id="页面-1" stroke="none" stroke-width="1" fill="none" fill-rule="evenodd">
        <g id="侧边banner新增" transform="translate(-82.000000, -47.000000)">
            <g id="编组-52" transform="translate(82.000000, 47.000000)">
                <rect id="矩形" x="0" y="0" width="20" height="20"></rect>
                <path d="M3.23794265,2 L2.36410078,2 C2.16156972,2 2,2.16354344 2,2.36342987 L2,17.6365701 C2,17.838728 2.16384535,18 2.36410078,18 L3.23794265,18 C3.44047371,18 3.60204343,17.8364566 3.60204343,17.6365701 L3.60204343,2.36570131 C3.60431906,2.16354344 3.44047371,2 3.23794265,2 Z M17.6358529,3.71266326 C13.3349124,7.1766042 9.03397194,-0.389551391 4.73075585,3.07211811 C4.53050042,3.23339012 4.36665507,3.55593413 4.36665507,3.75582056 L4.36665507,13.5434412 C4.36665507,13.7455991 4.53050042,13.7478705 4.73075585,13.5865985 C9.03169631,10.1226576 13.3349124,17.6910846 17.6358529,14.2271437 C17.8383839,14.0658717 17.9999771,13.7433277 17.9999771,13.5434412 L17.9999771,3.75582056 C18.0022293,3.55593413 17.8383839,3.55139125 17.6358529,3.71266326 Z" id="形状" fill="#FFFFFF" fill-rule="nonzero"></path>
            </g>
        </g>
    </g>
</svg>