<?xml version="1.0" encoding="UTF-8"?>
<svg width="24px" height="24px" viewBox="0 0 24 24" version="1.1" xmlns="http://www.w3.org/2000/svg" xmlns:xlink="http://www.w3.org/1999/xlink">
    <title>编组</title>
    <g id="页面-1" stroke="none" stroke-width="1" fill="none" fill-rule="evenodd">
        <g id="创建赛点--赛点列表--抽签（修改）" transform="translate(-310.000000, -1146.000000)" fill="#3A3F63" fill-rule="nonzero">
            <g id="编组" transform="translate(310.000000, 1146.000000)">
                <path d="M21.4526595,17.9200051 C23.0476873,18.559232 24,19.3634815 24,20.237851 C24,22.3150007 18.6270485,24 11.9992181,24 C5.37297013,24 0,22.3150007 0,20.237851 C0,19.3634816 0.951139771,18.559232 2.54656482,17.9200051 C2.16486154,18.1906147 1.95480587,18.4815453 1.95480587,18.7848137 C1.95480587,20.1964202 6.45225449,21.3394114 11.9992118,21.3394114 C17.5477579,21.3394114 22.0444122,20.1964202 22.0444122,18.7848137 C22.0444184,18.481539 21.8355294,18.1906147 21.4526595,17.9200051 L21.4526595,17.9200051 Z M6.10817113,0.82058833 C7.31286337,0.82058833 8.28949059,1.81372816 8.28949059,3.03840711 C8.28949059,4.26350254 7.31286337,5.25704628 6.10817113,5.25704628 C4.90346028,5.25704628 3.92685166,4.26349625 3.92685166,3.03840711 C3.92685166,1.81372185 4.90346646,0.82058833 6.10817113,0.82058833 L6.10817113,0.82058833 Z M17.8581436,0.82058833 C16.6542085,0.82058833 15.6775999,1.81372816 15.6775999,3.03840711 C15.6775999,4.26350254 16.6542084,5.25704628 17.8581436,5.25704628 C19.0636302,5.25704628 20.0402388,4.26349625 20.0402388,3.03840711 C20.0402388,1.81372185 19.0636302,0.82058833 17.8581436,0.82058833 L17.8581436,0.82058833 Z M15.7030749,13.5779829 L15.7030749,19.4248546 L17.2405062,19.4248546 L17.8546062,15.3263432 L18.4702887,19.4248546 L20.1440937,19.4248546 L20.1440937,12.9494908 C20.8075923,12.5971871 21.2637472,11.891002 21.2637472,11.0795897 L21.2637472,7.7669947 C21.2637472,6.60846619 20.3329998,5.66075193 19.1929539,5.66075193 L16.6448066,5.66075193 C16.4805998,5.66075193 16.3195269,5.68028405 16.1659011,5.71773897 C16.5072539,6.2481982 16.7055619,6.88067245 16.7055619,7.55895724 L16.7055619,11.1644833 C16.7055681,12.0870804 16.3328446,12.9522991 15.7030749,13.5779829 L15.7030749,13.5779829 Z M12.0360498,0 C13.3465953,0 14.4094093,1.08081029 14.4094093,2.41350588 C14.4094093,3.74660535 13.3465952,4.82741564 12.0360498,4.82741564 C10.7247597,4.82741564 9.66231795,3.74660535 9.66231795,2.41350588 C9.66231795,1.08081029 10.7247535,0 12.0360498,0 L12.0360498,0 Z M14.3812037,13.203749 C15.1085605,12.8235513 15.6109862,12.0504143 15.6109862,11.1644833 L15.6109862,7.55895724 C15.6109862,6.29881128 14.5967329,5.2673961 13.3575548,5.2673961 L10.5836882,5.2673961 C9.34369713,5.2673961 8.32985343,6.29881128 8.32985343,7.55895724 L8.32985343,11.1644833 C8.32985343,12.0464384 8.826396,12.8159846 9.54945833,13.1989906 L9.54945833,20.245424 L11.3706212,20.245424 L12.0399657,15.7854581 L12.7085841,20.245424 L14.3812099,20.245424 L14.3812099,13.203749 L14.3812037,13.203749 Z M8.26361216,13.5779829 C7.63423336,12.9522928 7.26192571,12.0870804 7.26192571,11.164477 L7.26192571,7.55895093 C7.26192571,6.88065982 7.45943933,6.24819189 7.80116452,5.71773266 C7.64755729,5.6802777 7.48686919,5.66074561 7.32227761,5.66074561 L4.77413028,5.66074561 C3.63409058,5.66074561 2.70331841,6.60845987 2.70331841,7.76698838 L2.70331841,11.0795834 C2.70331841,11.891002 3.1594919,12.5971808 3.82338146,12.9494845 L3.82338146,19.4248483 L5.49680165,19.4248483 L6.11248414,15.3263369 L6.72658415,19.4248483 L8.26361216,19.4248483 L8.26361216,13.5779829 Z" id="形状"></path>
            </g>
        </g>
    </g>
</svg>