<?xml version="1.0" encoding="UTF-8"?>
<svg width="16px" height="16px" viewBox="0 0 16 16" version="1.1" xmlns="http://www.w3.org/2000/svg" xmlns:xlink="http://www.w3.org/1999/xlink">
    <title>编组 21</title>
    <g id="页面-1" stroke="none" stroke-width="1" fill="none" fill-rule="evenodd">
        <g id="擂台管理--地点、地标（改）" transform="translate(-1188.000000, -371.000000)">
            <g id="编组-21" transform="translate(1188.000000, 371.000000)">
                <rect id="矩形" x="0" y="0" width="16" height="16"></rect>
                <g id="编组" transform="translate(1.000000, 1.000000)" fill="#FFA925" fill-rule="nonzero">
                    <path d="M7.33333333,14.6666667 C3.28333333,14.6666667 5.55111512e-16,11.3833333 5.55111512e-16,7.33333333 C5.55111512e-16,3.28333333 3.28333333,5.55111512e-16 7.33333333,5.55111512e-16 C11.3833333,5.55111512e-16 14.6666667,3.28333333 14.6666667,7.33333333 C14.6666667,11.3833333 11.3833333,14.6666667 7.33333333,14.6666667 Z M7.33333333,13.3333333 C10.6466667,13.3333333 13.3333333,10.6466667 13.3333333,7.33333333 C13.3333333,4.02 10.6466667,1.33333333 7.33333333,1.33333333 C4.01966666,1.33333333 1.33333333,4.02 1.33333333,7.33333333 C1.33333333,10.6466667 4.01966666,13.3333333 7.33333333,13.3333333 Z M7.33333333,4.53766666 C6.96505145,4.53766666 6.6665,4.23911521 6.6665,3.87083333 C6.6665,3.50255145 6.96505145,3.204 7.33333333,3.204 C7.70161521,3.204 8.00016666,3.50255145 8.00016666,3.87083333 C8.00016666,4.23911521 7.70161521,4.53766666 7.33333333,4.53766666 L7.33333333,4.53766666 Z M7.34233333,11.39 C6.99346766,11.3899229 6.70365714,11.1208962 6.67766666,10.773 L6.67566137,10.723 L6.67566137,6.05633333 C6.6742489,5.69679566 6.95819035,5.40090134 7.317481,5.38750101 C7.67677166,5.37410069 7.98196532,5.64802225 8.00733333,6.00666666 L8.009,6.05666666 L8.009,10.7233333 C8.009,11.0915232 7.71052316,11.39 7.34233333,11.39 L7.34233333,11.39 Z" id="形状"></path>
                </g>
            </g>
        </g>
    </g>
</svg>