<?xml version="1.0" encoding="UTF-8"?>
<svg width="24px" height="24px" viewBox="0 0 24 24" version="1.1" xmlns="http://www.w3.org/2000/svg" xmlns:xlink="http://www.w3.org/1999/xlink">
    <title>编组 28</title>
    <g id="页面-1" stroke="none" stroke-width="1" fill="none" fill-rule="evenodd">
        <g id="创建赛点--赛点列表--赛程操作" transform="translate(-1343.000000, -458.000000)">
            <g id="编组-18" transform="translate(607.000000, 450.000000)">
                <g id="编组-21" transform="translate(532.000000, 0.000000)">
                    <g id="编组-28" transform="translate(204.000000, 8.000000)">
                        <rect id="Rectangle" x="0" y="0" width="24" height="24"></rect>
                        <path d="M10.5,3 C14.6421356,3 18,6.35786438 18,10.5 C18,12.2101481 17.4276233,13.7866104 16.4639906,15.0482663 L19.7071068,18.2928932 C20.0976311,18.6834175 20.0976311,19.3165825 19.7071068,19.7071068 C19.3466228,20.0675907 18.7793918,20.0953203 18.3871006,19.7902954 L18.2928932,19.7071068 L15.0482663,16.4639906 C13.7866104,17.4276233 12.2101481,18 10.5,18 C6.35786438,18 3,14.6421356 3,10.5 C3,6.35786438 6.35786438,3 10.5,3 Z M10.5,5 C7.46243388,5 5,7.46243388 5,10.5 C5,13.5375661 7.46243388,16 10.5,16 C11.8511375,16 13.0884821,15.5127945 14.0459364,14.7044808 C14.0910318,14.5536336 14.1738048,14.4119817 14.2928932,14.2928932 C14.4119817,14.1738048 14.5536336,14.0910318 14.7040879,14.0445742 C15.5127945,13.0884821 16,11.8511375 16,10.5 C16,7.46243388 13.5375661,5 10.5,5 Z" id="Icon" fill="#858EBD"></path>
                    </g>
                </g>
            </g>
        </g>
    </g>
</svg>