<?xml version="1.0" encoding="UTF-8"?>
<svg width="24px" height="24px" viewBox="0 0 24 24" version="1.1" xmlns="http://www.w3.org/2000/svg" xmlns:xlink="http://www.w3.org/1999/xlink">
    <title>编组</title>
    <g id="页面-1" stroke="none" stroke-width="1" fill="none" fill-rule="evenodd">
        <g id="创建赛事--城市擂台" transform="translate(-1204.000000, -299.000000)" fill="#4458FE" fill-rule="nonzero">
            <g id="编组-41" transform="translate(1196.000000, 291.000000)">
                <g id="编组" transform="translate(8.000000, 8.000000)">
                    <path d="M19.1445,14.9901 C19.119,15.0156 19.0965,15.045 19.0713,15.0705 L12,21.7518 L4.9707,15.1113 C4.9314,15.072 4.8984,15.0294 4.8594,14.9883 C1.9161,15.9003 0,17.3556 0,18.9999 C0,21.7617 5.373,24 12,24 C18.6291,24 24,21.7617 24,18.9999 C24,17.3556 22.086,15.9003 19.1445,14.9901 Z" id="路径"></path>
                    <path d="M19.9989,7.9998 C19.9989,3.5859 16.4187,0 12,0 C7.584,0.0018 3.9999,3.5817 3.9999,8.0019 C3.9999,10.2087 4.8954,12.2088 6.3438,13.6563 L12,18.9999 L17.6571,13.6542 C19.1598676,12.156581 20.0031828,10.1213946 20.0001084,7.9998 L19.9989,7.9998 L19.9989,7.9998 Z M12,12 C9.7902,12 8.0001,10.2108 8.0001,7.9998 C8.0001,5.7909 9.7902,3.9999 12,3.9999 C14.2089,3.9999 15.9999,5.7909 15.9999,7.9998 C15.9999,10.2108 14.2089,12 12,12 Z" id="形状"></path>
                </g>
            </g>
        </g>
    </g>
</svg>